<svg xmlns="http://www.w3.org/2000/svg" viewBox="0 0 27 27" width="32" height="32">
    <path fill="currentColor" d="M0 0h7v1H6v1H5v1H4v1H3v1H2v1h5v1H0V6h1V5h1V4h1V3h1V2h1V1H0m13 2h5v1h-1v1h-1v1h-1v1h3v1h-5V7h1V6h1V5h1V4h-3m8 5h1v5h1v-1h1v1h-1v1h1v-1h1v1h-1v3h-1v1h-2v1h-1v1h1v-1h2v-1h1v2h-1v1h-2v1h-1v-1h-1v1h-6v-1h-1v-1h-1v-2h1v1h2v1h3v1h1v-1h-1v-1h-3v-1h-4v-4h1v-2h1v-1h1v-1h1v2h1v1h1v-1h1v1h-1v1h2v-2h1v-2h1v-1h1M8 14h2v1H9v4h1v2h1v1h1v1h1v1h4v1h-6v-1H5v-1H4v-5h1v-1h1v-2h2m17 3h1v3h-1v1h-1v1h-1v2h-2v-2h2v-1h1v-1h1m1 0h1v3h-1v1h-2v-1h1v-1h1" />
</svg>
